<svg xmlns="http://www.w3.org/2000/svg" width="23.713" height="23.713" viewBox="0 0 23.713 23.713">
  <path id="ic_notifications_active_24px" d="M8.63,4.421l-1.7-1.739a12.764,12.764,0,0,0-4.9,9.546H4.408A10.328,10.328,0,0,1,8.63,4.421Zm14.734,7.807h2.378a12.842,12.842,0,0,0-4.9-9.546L19.154,4.421A10.389,10.389,0,0,1,23.364,12.228Zm-2.343.608c0-3.733-1.95-6.858-5.351-7.685V4.324a1.784,1.784,0,1,0-3.568,0v.827c-3.413.827-5.351,3.94-5.351,7.685v6.08L4.373,21.348v1.216H23.4V21.348l-2.378-2.432ZM13.886,26.213a2.039,2.039,0,0,0,.476-.049,2.426,2.426,0,0,0,1.712-1.435,2.49,2.49,0,0,0,.178-.949H11.5a2.423,2.423,0,0,0,2.39,2.432Z" transform="translate(-2.03 -2.5)" fill="#fff"/>
</svg>
