<?xml version="1.0" encoding="UTF-8" standalone="no"?>
<svg
   xmlns:dc="http://purl.org/dc/elements/1.1/"
   xmlns:cc="http://creativecommons.org/ns#"
   xmlns:rdf="http://www.w3.org/1999/02/22-rdf-syntax-ns#"
   xmlns:svg="http://www.w3.org/2000/svg"
   xmlns="http://www.w3.org/2000/svg"
   viewBox="0 0 373.33334 461.33334"
   height="461.33334"
   width="373.33334"
   xml:space="preserve"
   id="svg2"
   version="1.1"><metadata
     id="metadata8"><rdf:RDF><cc:Work
         rdf:about=""><dc:format>image/svg+xml</dc:format><dc:type
           rdf:resource="http://purl.org/dc/dcmitype/StillImage" /></cc:Work></rdf:RDF></metadata><defs
     id="defs6" /><g
     transform="matrix(1.3333333,0,0,-1.3333333,0,461.33333)"
     id="g10"><g
       transform="scale(0.1)"
       id="g12"><path
         id="path14"
         style="fill:#344e5c;fill-opacity:1;fill-rule:nonzero;stroke:none"
         d="m 333.871,3458.01 c -101.723,0 -184.223,-82.5 -184.223,-184.22 V 186.211 c 0,-101.7227 82.5,-184.22272 184.223,-184.22272 H 779.648 V 3458.01 Z" /><path
         id="path16"
         style="fill:#dad7dc;fill-opacity:1;fill-rule:nonzero;stroke:none"
         d="m 758.832,1.98828 h 2040.86 V 3458.0083 H 758.832 Z" /><path
         id="path18"
         style="fill:#b0b1b5;fill-opacity:1;fill-rule:nonzero;stroke:none"
         d="m 149.648,2853.79 c -82.3472,0 -149.339406,66.99 -149.339406,149.33 0,82.35 66.992206,149.38 149.339406,149.38 v -48.95 c -55.3472,0 -100.3863,-45.07 -100.3863,-100.43 0,-55.35 45.0391,-100.39 100.3863,-100.39 55.352,0 100.391,45.04 100.391,100.39 h 48.941 c 0,-82.34 -66.992,-149.33 -149.332,-149.33 z" /><path
         id="path20"
         style="fill:#b0b1b5;fill-opacity:1;fill-rule:nonzero;stroke:none"
         d="m 149.648,2490.04 c -82.3472,0 -149.339406,66.99 -149.339406,149.34 0,82.34 66.992206,149.37 149.339406,149.37 v -48.98 c -55.3472,0 -100.3863,-45.04 -100.3863,-100.39 0,-55.36 45.0391,-100.4 100.3863,-100.4 55.352,0 100.391,45.04 100.391,100.4 h 48.941 c 0,-82.35 -66.992,-149.34 -149.332,-149.34 z" /><path
         id="path22"
         style="fill:#b0b1b5;fill-opacity:1;fill-rule:nonzero;stroke:none"
         d="m 149.648,2126.29 c -82.3472,0 -149.339406,66.99 -149.339406,149.33 0,82.35 66.992206,149.34 149.339406,149.34 v -48.94 c -55.3472,0 -100.3863,-45.04 -100.3863,-100.4 0,-55.35 45.0391,-100.39 100.3863,-100.39 55.352,0 100.391,45.04 100.391,100.39 h 48.941 c 0,-82.34 -66.992,-149.33 -149.332,-149.33 z" /><path
         id="path24"
         style="fill:#b0b1b5;fill-opacity:1;fill-rule:nonzero;stroke:none"
         d="m 149.648,1762.54 c -82.3472,0 -149.339406,66.99 -149.339406,149.34 0,82.34 66.992206,149.33 149.339406,149.33 v -48.94 c -55.3472,0 -100.3863,-45.04 -100.3863,-100.39 0,-55.36 45.0391,-100.4 100.3863,-100.4 55.352,0 100.391,45.04 100.391,100.4 h 48.941 c 0,-82.35 -66.992,-149.34 -149.332,-149.34 z" /><path
         id="path26"
         style="fill:#b0b1b5;fill-opacity:1;fill-rule:nonzero;stroke:none"
         d="m 149.648,1398.79 c -82.3472,0 -149.339406,66.95 -149.339406,149.33 0,82.35 66.992206,149.34 149.339406,149.34 v -48.94 c -55.3472,0 -100.3863,-45.04 -100.3863,-100.4 0,-55.39 45.0391,-100.39 100.3863,-100.39 55.352,0 100.391,45 100.391,100.39 h 48.941 c 0,-82.38 -66.992,-149.33 -149.332,-149.33 z" /><path
         id="path28"
         style="fill:#b0b1b5;fill-opacity:1;fill-rule:nonzero;stroke:none"
         d="m 149.648,1035 c -82.3472,0 -149.339406,66.99 -149.339406,149.34 0,82.38 66.992206,149.37 149.339406,149.37 v -48.94 c -55.3472,0 -100.3863,-45.04 -100.3863,-100.43 0,-55.36 45.0391,-100.36 100.3863,-100.36 55.352,0 100.391,45 100.391,100.36 H 298.98 C 298.98,1101.99 231.988,1035 149.648,1035 Z" /><path
         id="path30"
         style="fill:#b0b1b5;fill-opacity:1;fill-rule:nonzero;stroke:none"
         d="m 149.648,671.25 c -82.3472,0 -149.339406,66.988 -149.339406,149.34 0,82.34 66.992206,149.371 149.339406,149.371 V 921.02 c -55.3472,0 -100.3863,-45.079 -100.3863,-100.43 0,-55.36 45.0391,-100.36 100.3863,-100.36 55.352,0 100.391,45 100.391,100.36 h 48.941 c 0,-82.352 -66.992,-149.34 -149.332,-149.34 z" /><path
         id="path32"
         style="fill:#b0b1b5;fill-opacity:1;fill-rule:nonzero;stroke:none"
         d="m 149.648,307.5 c -82.3472,0 -149.339406,66.988 -149.339406,149.34 0,82.34 66.992206,149.371 149.339406,149.371 V 557.27 c -55.3472,0 -100.3863,-45.079 -100.3863,-100.43 0,-55.36 45.0391,-100.391 100.3863,-100.391 55.352,0 100.391,45.031 100.391,100.391 h 48.941 c 0,-82.352 -66.992,-149.34 -149.332,-149.34 z" /><path
         id="path34"
         style="fill:#dc594e;fill-opacity:1;fill-rule:nonzero;stroke:none"
         d="m 2563.05,2575.12 -268.28,189.68 -268.25,-189.68 v 882.89 h 536.53 z" /><path
         id="path36"
         style="fill:#e6e7e8;fill-opacity:1;fill-rule:nonzero;stroke:none"
         d="m 2364.22,1333.71 c 0,-317.3 -257.23,-574.53 -574.53,-574.53 -317.31,0 -574.53,257.23 -574.53,574.53 0,317.31 257.22,574.53 574.53,574.53 317.3,0 574.53,-257.22 574.53,-574.53 z" /><path
         id="path38"
         style="fill:#ba9a43;fill-opacity:1;fill-rule:nonzero;stroke:none"
         d="m 1910.59,1170 c -15.55,-14.49 -43.56,-18.95 -62.82,-7.66 -94.65,55.9 -173.59,134.89 -229.53,229.54 -11.25,19.21 -6.83,47.22 7.7,62.77 l -104.69,255.04 c -28.48,-5.28 -52.97,-16.84 -71.8,-35.67 -92.61,-92.61 -15.39,-320.04 172.54,-507.97 187.89,-187.89 415.31,-265.152 507.97,-172.499 18.79,18.789 30.55,43.209 35.82,71.719 z" /><path
         id="path40"
         style="fill:#d6b251;fill-opacity:1;fill-rule:nonzero;stroke:none"
         d="m 1603.32,1689.22 c -5.35,13.83 -18.52,23.01 -33.36,23.63 -17.26,0.74 -33.51,-0.35 -48.71,-3.16 l 104.69,-255.04 c 1.4,1.52 2.85,3.08 4.45,4.37 8.67,6.72 17.38,13.52 26.09,20.28 12.93,10.08 17.78,27.46 11.84,42.73 z" /><path
         id="path42"
         style="fill:#d6b251;fill-opacity:1;fill-rule:nonzero;stroke:none"
         d="m 2168.52,1118.75 c -0.9,14.14 -10.32,26.29 -23.48,31.41 l -165.47,64.33 c -15.27,5.94 -32.62,1.13 -42.69,-11.79 -7.35,-9.42 -14.65,-18.83 -21.96,-28.21 -1.25,-1.64 -2.81,-3.04 -4.33,-4.49 l 255.19,-104.73 c 3.09,16.53 3.95,34.46 2.74,53.48 z" /></g></g></svg>