<svg id="Layer_5" enable-background="new 0 0 64 64" height="512" viewBox="0 0 64 64" width="512" xmlns="http://www.w3.org/2000/svg" xmlns:xlink="http://www.w3.org/1999/xlink"><linearGradient id="SVGID_1_" gradientUnits="userSpaceOnUse" x1="32" x2="32" y1="63" y2="1"><stop offset="0" stop-color="#9f2fff"/><stop offset="1" stop-color="#0bb1d3"/></linearGradient><path d="m54 19h-8v6h8zm-2 4h-4v-2h4zm6 4v-10.184c1.161-.414 2-1.514 2-2.816v-2l-3.256-11h-25.488l-3.214 10.713-.042 2.287c0 1.302.839 2.402 2 2.816v10.184h-8.695c2.834-1.992 4.695-5.28 4.695-9 0-6.065-4.935-11-11-11s-11 4.935-11 11c0 3.72 1.861 7.008 4.695 9h-2.695c-2.757 0-5 2.243-5 5v26c0 2.757 2.243 5 5 5h52c2.757 0 5-2.243 5-5v-26c0-2.757-2.243-5-5-5zm-1-12h-6c-.552 0-1-.449-1-1v-1h8v1c0 .551-.448 1-1 1zm-9-1c0 .551-.448 1-1 1h-6c-.552 0-1-.449-1-1v-1h8zm-10 0c0 .551-.448 1-1 1h-6c-.552 0-1-.449-1-1v-1h8zm2.105-3 .8-8h6.19l.804 8zm17.551 0h-7.751l-.8-8h6.151zm-24.912-8h6.151l-.796 8h-7.755zm-.744 14h5c.771 0 1.468-.301 2-.78.532.48 1.229.78 2 .78h6c.771 0 1.468-.301 2-.78.532.48 1.229.78 2 .78h5v10h-12v-8h-10v8h-2zm10 10h-6v-6h6zm-36-9c0-4.962 4.037-9 9-9s9 4.038 9 9-4.037 9-9 9-9-4.038-9-9zm55 40c0 1.654-1.346 3-3 3h-52c-1.654 0-3-1.346-3-3v-26c0-1.654 1.346-3 3-3h52c1.654 0 3 1.346 3 3zm-8-27h-42c-1.103 0-2 .897-2 2v24c0 1.103.897 2 2 2h42c1.103 0 2-.897 2-2v-24c0-1.103-.897-2-2-2zm0 26h-42v-24l42-.001zm4-17h2v10h-2zm-52 8h2v2h-2zm0-8h2v6h-2zm11 1h3.704l1.175 8.222c-1.1.445-1.879 1.521-1.879 2.778 0 1.654 1.346 3 3 3s3-1.346 3-3c0-.352-.072-.686-.184-1h6.369c-.113.314-.185.648-.185 1 0 1.654 1.346 3 3 3s3-1.346 3-3c0-1.208-.722-2.246-1.754-2.721l1.716-6.005.038-2.274h-15.275l-.489-3.425c-.211-1.468-1.487-2.575-2.97-2.575h-2.266c-1.654 0-3 1.346-3 3s1.346 3 3 3zm7 11c0 .552-.448 1-1 1s-1-.448-1-1 .448-1 1-1 1 .448 1 1zm11 1c-.552 0-1-.448-1-1s.448-1 1-1 1 .448 1 1-.448 1-1 1zm.96-10-1.715 6h-10.378l-.857-6zm-18.96-6h2.266c.494 0 .92.369.989.858l.163 1.142h-3.418c-.552 0-1-.448-1-1s.448-1 1-1zm-3-22v1c0 .551.448 1 1 1h2c1.654 0 3 1.346 3 3v3h-3v2h-2v-2c-1.654 0-3-1.346-3-3h2c0 .551.448 1 1 1h3v-1c0-.551-.448-1-1-1h-2c-1.654 0-3-1.346-3-3v-3h3v-2h2v2c1.654 0 3 1.346 3 3h-2c0-.551-.448-1-1-1zm38 20h-12v12h12zm-2 10h-8v-8h8zm0 4h2v6h-2zm-4 0h2v6h-2zm-4 0h2v6h-2z" fill="url(#SVGID_1_)"/></svg>