<?xml version="1.0" encoding="iso-8859-1"?>
<!-- Generator: Adobe Illustrator 16.0.0, SVG Export Plug-In . SVG Version: 6.00 Build 0)  -->
<!DOCTYPE svg PUBLIC "-//W3C//DTD SVG 1.1//EN" "http://www.w3.org/Graphics/SVG/1.1/DTD/svg11.dtd">
<svg version="1.1" id="Capa_1" xmlns="http://www.w3.org/2000/svg" xmlns:xlink="http://www.w3.org/1999/xlink" x="0px" y="0px"
	 width="579.359px" height="579.359px" viewBox="0 0 579.359 579.359" style="enable-background:new 0 0 579.359 579.359;"
	 xml:space="preserve">
<g>
	<g>
		<path d="M289.681,0c-79.988,0-144.839,64.854-144.839,144.839v46.463c-1.059,14.976-6.025,49.786-29.291,47.381
			c-29.461-3.048,7.867,50.551,65.108,50.979c0.131,0,0.26,0.02,0.392,0.02h217.26c57.629,0,95.371-54.062,65.79-51.001
			s-29.581-54.061-29.581-54.061v-39.78C434.52,64.854,369.669,0,289.681,0z M289.681,32.396c50.239,0,97.088,34.856,97.088,77.855
			c0,2.007-0.089,3.997-0.264,5.964c-0.29,3.287-1.453,1.839-3.118-2.95c-11.447-32.926-51.863-57.103-93.706-57.103
			c-41.849,0-84.857,24.186-96.714,57.118c-1.717,4.771-2.879,6.221-3.17,2.935c-0.174-1.967-0.263-3.957-0.263-5.964
			C189.534,67.253,239.442,32.396,289.681,32.396z M289.681,253.472c-59.973,0-108.63-45.579-108.63-105.57
			c0,0,48.333-42.338,109.652-42.338c62.219,0,107.607,42.338,107.607,42.338C398.311,207.894,349.654,253.472,289.681,253.472z"/>
		<path d="M72.421,398.311v144.84c0,20.016,16.196,36.209,36.209,36.209h36.209H434.52h36.209c20.016,0,36.209-16.197,36.209-36.209
			v-144.84c0-39.994-32.427-72.42-72.421-72.42h-33.115c-5.07,0-12.573,2.316-16.763,5.178l-36.995,25.256
			c-4.187,2.859-8.746,9.119-10.181,13.982l-43.149,146.191c-1.435,4.861-3.834,4.883-5.361,0.049L243.61,372.836
			c-1.527-4.834-6.172-11.049-10.379-13.879l-41.524-27.941c-4.208-2.83-11.726-5.125-16.796-5.125h-30.077
			C104.848,325.891,72.421,358.316,72.421,398.311z M233.071,465.119c8.449,0,15.3,6.852,15.3,15.301s-6.851,15.301-15.3,15.301
			s-15.3-6.852-15.3-15.301S224.623,465.119,233.071,465.119z M233.071,520.199c8.449,0,15.3,6.852,15.3,15.301
			s-6.851,15.301-15.3,15.301s-15.3-6.852-15.3-15.301S224.623,520.199,233.071,520.199z"/>
	</g>
</g>
<g>
</g>
<g>
</g>
<g>
</g>
<g>
</g>
<g>
</g>
<g>
</g>
<g>
</g>
<g>
</g>
<g>
</g>
<g>
</g>
<g>
</g>
<g>
</g>
<g>
</g>
<g>
</g>
<g>
</g>
</svg>
